<svg width="22" height="22" viewBox="0 0 22 22" fill="none" xmlns="http://www.w3.org/2000/svg">
<path d="M12.3333 1.54167C12.3333 1.13279 12.1709 0.740663 11.8818 0.451544C11.5927 0.162425 11.2005 0 10.7917 0C10.3828 0 9.99066 0.162425 9.70154 0.451544C9.41243 0.740663 9.25 1.13279 9.25 1.54167V9.25H1.54167C1.13279 9.25 0.740663 9.41243 0.451544 9.70154C0.162425 9.99066 0 10.3828 0 10.7917C0 11.2005 0.162425 11.5927 0.451544 11.8818C0.740663 12.1709 1.13279 12.3333 1.54167 12.3333H9.25V20.0417C9.25 20.4505 9.41243 20.8427 9.70154 21.1318C9.99066 21.4209 10.3828 21.5833 10.7917 21.5833C11.2005 21.5833 11.5927 21.4209 11.8818 21.1318C12.1709 20.8427 12.3333 20.4505 12.3333 20.0417V12.3333H20.0417C20.4505 12.3333 20.8427 12.1709 21.1318 11.8818C21.4209 11.5927 21.5833 11.2005 21.5833 10.7917C21.5833 10.3828 21.4209 9.99066 21.1318 9.70154C20.8427 9.41243 20.4505 9.25 20.0417 9.25H12.3333V1.54167Z" fill="white"/>
</svg>
