<svg width="44" height="44" viewBox="0 0 44 44" fill="none" xmlns="http://www.w3.org/2000/svg">
<path fill-rule="evenodd" clip-rule="evenodd" d="M22.9694 4.56133L21.0375 4.53223L12.9965 4.76837e-07L10.8666 8.66661L9.49952 10.0294L0 12L5.29123 20.2658V22.2564L0 31L9.49187 32.6L10.8696 34.0318L11.9968 44L21.0222 38.431L22.9541 38.4555L31.4916 44L33.1349 34.3329L34.5014 32.9695L44 30.9947L38.7051 22.7312L38.7042 20.7406L43.9916 11.9947L34.4991 10.3989L33.1207 8.96774L31.9915 0L22.9694 4.56133ZM14.647 19.9653C14.3189 21.424 14.4289 22.9471 14.9631 24.3435C15.7104 26.2316 17.175 27.7467 19.0365 28.5571C20.8979 29.3675 23.0045 29.4073 24.8952 28.6678C26.281 28.1073 27.4703 27.1499 28.3141 25.9157C29.1579 24.6816 29.6185 23.2256 29.6381 21.7306C29.6577 20.2356 29.2355 18.768 28.4244 17.5122C27.6133 16.2563 26.4495 15.268 25.0789 14.6713C23.7083 14.0746 22.1921 13.896 20.7205 14.158C19.2489 14.4201 17.8874 15.111 16.8069 16.1441C15.7264 17.1773 14.975 18.5066 14.647 19.9653Z" fill="white"/>
</svg>
