<svg width="42" height="42" viewBox="0 0 42 42" fill="none" xmlns="http://www.w3.org/2000/svg">
<path d="M19.1667 13.2813L26.4584 0.78125C29.6181 1.61458 32.4222 3.14236 34.8709 5.36458C37.3195 7.58681 39.0986 10.2257 40.2084 13.2813H19.1667ZM13.3854 18.4896L6.25002 5.98958C8.12502 4.14931 10.3042 2.69097 12.7875 1.61458C15.2709 0.538195 17.9528 0 20.8334 0C21.2847 0 21.8056 0.0263891 22.3959 0.0791669C22.9861 0.131945 23.5243 0.192361 24.0104 0.260417L13.3854 18.4896ZM0.677107 26.0417C0.468773 25.2083 0.303495 24.3576 0.181273 23.4896C0.059051 22.6215 -0.00136548 21.7361 2.34083e-05 20.8333C2.34083e-05 18.3681 0.399329 16.0417 1.19794 13.8542C1.99655 11.6667 3.12502 9.67014 4.58336 7.86458L15.1042 26.0417H0.677107ZM15.2604 40.8854C12.1007 40.0521 9.28822 38.5243 6.82294 36.3021C4.35766 34.0799 2.56947 31.441 1.45836 28.3854H22.4479L15.2604 40.8854ZM20.8334 41.6667C20.3125 41.6667 19.7827 41.632 19.2438 41.5625C18.7049 41.4931 18.1931 41.4236 17.7084 41.3542L28.2813 23.1771L35.4167 35.6771C33.5417 37.5174 31.3632 38.9757 28.8813 40.0521C26.3993 41.1285 23.7167 41.6667 20.8334 41.6667ZM37.0834 33.8021L26.5625 15.625H40.9896C41.1979 16.4583 41.3632 17.309 41.4854 18.1771C41.6077 19.0451 41.6681 19.9306 41.6667 20.8333C41.6667 23.2639 41.2417 25.5903 40.3917 27.8125C39.5417 30.0347 38.4389 32.0313 37.0834 33.8021Z" fill="white"/>
</svg>
