<svg width="49" height="44" viewBox="0 0 49 44" fill="none" xmlns="http://www.w3.org/2000/svg">
<path d="M11.8923 16.3859C12.7112 14.0624 14.0389 11.9562 15.776 10.2247C22.1561 3.86028 32.4782 3.94569 38.8256 10.4534C45.173 16.9611 45.113 27.4004 38.7302 33.7648C35.7726 36.723 31.7991 38.411 27.64 38.4762C26.0632 38.5057 24.4904 38.3044 22.9707 37.8783L13.3977 35.23C13.3977 35.23 20.9898 43.6368 22.7762 43.8116C24.5625 43.9865 25.6377 44.0247 27.738 43.9865C33.2957 43.8961 38.6044 41.6399 42.5577 37.6882C51.0981 29.1692 51.1471 15.2391 42.7048 6.58238C34.2625 -2.07435 20.4944 -2.21761 11.9513 6.30135C9.63069 8.6137 7.85653 11.4263 6.76121 14.5292C6.03798 16.578 5.62305 18.7184 5.52477 20.8793H0L8.48523 30.2616L16.5239 20.8793H10.9832C11.0759 19.3503 11.3807 17.8374 11.8923 16.3859Z" fill="white"/>
<path d="M27.738 27.1C25.0864 27.386 23.2227 26.1966 23.2227 23.5251C23.2227 20.8535 26.9621 6.58238 26.9621 6.58238L30.0375 20.335L40.1932 23.8111C40.1932 23.8111 32.2319 26.031 27.738 27.1Z" fill="white"/>
</svg>
