<svg width="10" height="15" viewBox="0 0 10 15" fill="none" xmlns="http://www.w3.org/2000/svg">
<path d="M1.146 0.136876C1.19252 0.093374 1.24773 0.0588946 1.30847 0.0354086C1.36921 0.0119226 1.4343 -0.000109265 1.5 7.4765e-07H8.5C8.63261 7.4765e-07 8.75979 0.0493868 8.85355 0.137294C8.94732 0.225202 9 0.34443 9 0.468751C9 1.10625 8.658 1.56938 8.354 1.85531C8.228 1.9725 8.104 2.06531 8 2.13469V6.28875L8.078 6.33375C8.281 6.45281 8.554 6.62813 8.829 6.85406C9.36 7.28906 10 7.99406 10 8.90625C10 9.03057 9.94732 9.1498 9.85355 9.23771C9.75979 9.32561 9.63261 9.375 9.5 9.375H5.5V13.5938C5.5 13.8525 5.276 15 5 15C4.724 15 4.5 13.8525 4.5 13.5938V9.375H0.5C0.367392 9.375 0.240215 9.32561 0.146447 9.23771C0.0526785 9.1498 0 9.03057 0 8.90625C0 7.99406 0.64 7.28906 1.17 6.85406C1.42894 6.64376 1.70663 6.45463 2 6.28875V2.13469C1.8745 2.05025 1.75615 1.95684 1.646 1.85531C1.342 1.56938 1 1.10531 1 0.468751C0.999883 0.407152 1.01272 0.346136 1.03777 0.289191C1.06282 0.232245 1.0996 0.180487 1.146 0.136876ZM2.724 1.45594L2.726 1.45688C2.80842 1.49603 2.87766 1.55583 2.92603 1.62964C2.97439 1.70345 3 1.78838 3 1.875V6.5625C3 6.64948 2.97418 6.73474 2.92544 6.80875C2.87669 6.88276 2.80695 6.9426 2.724 6.98156H2.722L2.71 6.98813L2.656 7.01625C2.36146 7.17086 2.08438 7.35304 1.829 7.56C1.511 7.82063 1.244 8.11875 1.104 8.4375H8.896C8.756 8.11875 8.489 7.82063 8.171 7.56C7.90003 7.34034 7.60467 7.14861 7.29 6.98813L7.278 6.9825H7.276C7.1929 6.94346 7.12305 6.88348 7.0743 6.80929C7.02555 6.7351 6.99982 6.64964 7 6.5625V1.875C6.99962 1.78435 7.02729 1.69555 7.07965 1.61934C7.132 1.54313 7.20681 1.48279 7.295 1.44563C7.42272 1.37482 7.54062 1.28949 7.646 1.19156C7.726 1.11656 7.801 1.03219 7.86 0.937501H2.14C2.20067 1.03125 2.272 1.11594 2.354 1.19156C2.46462 1.29432 2.58899 1.38319 2.724 1.45594Z" fill="white"/>
</svg>
