<svg width="17" height="12" viewBox="0 0 17 12" fill="none" xmlns="http://www.w3.org/2000/svg">
<path d="M8.5 3.6C7.88518 3.6 7.29554 3.85286 6.8608 4.30294C6.42605 4.75303 6.18182 5.36348 6.18182 6C6.18182 6.63652 6.42605 7.24697 6.8608 7.69706C7.29554 8.14714 7.88518 8.4 8.5 8.4C9.11482 8.4 9.70446 8.14714 10.1392 7.69706C10.5739 7.24697 10.8182 6.63652 10.8182 6C10.8182 5.36348 10.5739 4.75303 10.1392 4.30294C9.70446 3.85286 9.11482 3.6 8.5 3.6ZM8.5 10C7.4753 10 6.49257 9.57857 5.768 8.82843C5.04342 8.07828 4.63636 7.06087 4.63636 6C4.63636 4.93913 5.04342 3.92172 5.768 3.17157C6.49257 2.42143 7.4753 2 8.5 2C9.5247 2 10.5074 2.42143 11.232 3.17157C11.9566 3.92172 12.3636 4.93913 12.3636 6C12.3636 7.06087 11.9566 8.07828 11.232 8.82843C10.5074 9.57857 9.5247 10 8.5 10ZM8.5 0C4.63636 0 1.33682 2.488 0 6C1.33682 9.512 4.63636 12 8.5 12C12.3636 12 15.6632 9.512 17 6C15.6632 2.488 12.3636 0 8.5 0Z" fill="white"/>
</svg>
