<svg width="29" height="29" viewBox="0 0 29 29" fill="none" xmlns="http://www.w3.org/2000/svg">
<path d="M14.5 0C6.49187 0 0 6.49187 0 14.5C0 22.5081 6.49187 29 14.5 29C22.5081 29 29 22.5081 29 14.5C29 6.49187 22.5081 0 14.5 0ZM15.4947 6.28358C19.3743 6.28358 22.5182 9.42925 22.5182 13.3088C22.5182 17.1883 19.3743 20.3322 15.4947 20.3322C14.3207 20.3322 13.2142 20.045 12.2415 19.5357C12.2424 19.5402 12.244 19.5454 12.245 19.5499L9.07666 22.7164L6.48181 20.1198L9.53687 17.063C9.54192 17.0607 9.54774 17.0599 9.55279 17.0577C8.86677 15.9728 8.46955 14.6872 8.46955 13.3088C8.46955 9.42923 11.6152 6.28358 15.4947 6.28358ZM15.4947 9.40412C13.3388 9.40412 11.5901 11.1528 11.5901 13.3088C11.5901 15.4648 13.3388 17.2117 15.4947 17.2117C17.6507 17.2117 19.3976 15.4648 19.3976 13.3088C19.3976 11.1528 17.6508 9.40412 15.4947 9.40412Z" fill="#090326"/>
<path fill-rule="evenodd" clip-rule="evenodd" d="M15.4947 6.28358C19.3743 6.28358 22.5182 9.42925 22.5182 13.3088C22.5182 17.1883 19.3743 20.3322 15.4947 20.3322C14.3207 20.3322 13.2142 20.045 12.2415 19.5357C12.2424 19.5402 12.244 19.5454 12.245 19.5499L9.07666 22.7164L6.48181 20.1198L9.53687 17.063C9.54192 17.0607 9.54774 17.0599 9.55279 17.0577C8.86677 15.9728 8.46955 14.6872 8.46955 13.3088C8.46955 9.42923 11.6152 6.28358 15.4947 6.28358ZM11.5901 13.3088C11.5901 11.1528 13.3388 9.40412 15.4947 9.40412C17.6508 9.40412 19.3976 11.1528 19.3976 13.3088C19.3976 15.4648 17.6507 17.2117 15.4947 17.2117C13.3388 17.2117 11.5901 15.4648 11.5901 13.3088Z" fill="white"/>
</svg>
