<svg width="164" height="168" viewBox="0 0 164 168" fill="none" xmlns="http://www.w3.org/2000/svg">
<path fill-rule="evenodd" clip-rule="evenodd" d="M94.2108 54.2825C83.8603 43.932 76.3515 24.4452 72.8738 14.0383C72.2288 12.1084 69.1927 12.1084 68.5478 14.0383C65.07 24.4452 57.5613 43.932 47.2108 54.2825C36.8602 64.633 17.3734 72.1418 6.96646 75.6196C5.03659 76.2645 5.03658 79.3006 6.96645 79.9455C17.3733 83.4233 36.8602 90.9321 47.2107 101.283C61.7734 115.845 69.9214 134.5 69.9214 134.5C76.9999 146.283 88.4214 152.127 98.9214 150.572C109.421 149.016 120.421 143.072 120.421 127.5C120.421 111.928 103.022 114.111 109.067 116.5C117.921 120 114.421 139.449 98.9214 140.5C88.7601 141.189 81.969 137 80.9214 127.5C79.5784 115.322 91.3856 104.108 94.2108 101.283C113.5 81.9934 155.921 78.1387 155.921 78.1387C155.921 78.1387 114 74.0717 94.2108 54.2825ZM58.2442 65.4615C53.5933 70.1124 45.5229 73.6996 39.712 75.8526C37.8039 76.5595 37.8039 79.718 39.712 80.4249C45.5229 82.5779 53.5933 86.1652 58.2442 90.8161C62.952 95.5239 66.9291 103.196 69.3606 108.589C70.1775 110.401 73.2018 110.242 73.8539 108.364C75.7223 102.985 78.956 95.4588 83.5988 90.8161C88.2497 86.1652 96.32 82.5779 102.131 80.4249C104.039 79.718 104.039 76.5595 102.131 75.8526C96.32 73.6996 88.2497 70.1123 83.5988 65.4615C78.9479 60.8106 75.3606 52.7402 73.2076 46.9293C72.5007 45.0212 69.3422 45.0212 68.6353 46.9293C66.4824 52.7402 62.8951 60.8106 58.2442 65.4615Z" fill="url(#paint0_linear_1247_362)"/>
<path d="M86.6506 77.7826C86.6506 80.7826 76.6734 87.7826 71.1506 87.7826C65.6277 87.7826 56.6506 80.387 56.6506 77.7826C56.6506 75.1781 65.6277 67.7826 71.1506 67.7826C76.6734 67.7826 86.6506 74.7826 86.6506 77.7826Z" fill="#FF8427"/>
<defs>
<linearGradient id="paint0_linear_1247_362" x1="157.5" y1="80.0719" x2="7.00015" y2="81.0719" gradientUnits="userSpaceOnUse">
<stop offset="0.0673077" stop-color="#ED6600"/>
<stop offset="0.59812" stop-color="#1610C5"/>
</linearGradient>
</defs>
</svg>
